HIERARCHY
ROOT Hips
{
	OFFSET 0.000000 89.005402 0.000000
	CHANNELS 6 Xposition Yposition Zposition Xrotation Yrotation Zrotation
	JOINT Spine
	{
		OFFSET 0.116900 10.681000 0.373400
		CHANNELS 3 Xrotation Yrotation Zrotation
		JOINT Spine1
		{
			OFFSET 0.000000 13.840401 0.053500
			CHANNELS 3 Xrotation Yrotation Zrotation
			JOINT Spine2
			{
				OFFSET 0.000000 14.712700 -0.366200
				CHANNELS 3 Xrotation Yrotation Zrotation
				JOINT Neck
				{
					OFFSET 0.000000 35.415497 -3.314200
					CHANNELS 3 Xrotation Yrotation Zrotation
					JOINT Head
					{
						OFFSET 0.000000 16.899200 1.218300
						CHANNELS 3 Xrotation Yrotation Zrotation
						JOINT HeadTop_End
						{
							OFFSET 0.000000 22.206207 2.192500
							CHANNELS 3 Xrotation Yrotation Zrotation
							End Site
							{
								OFFSET 0.000000 22.314178 0.000000
							}
						}
					}
				}
				JOINT LeftShoulder
				{
					OFFSET 12.896400 26.716293 -4.548400
					CHANNELS 3 Xrotation Yrotation Zrotation
					JOINT LeftArm
					{
						OFFSET 19.027000 -4.857010 -1.718400
						CHANNELS 3 Xrotation Yrotation Zrotation
						JOINT LeftForeArm
						{
							OFFSET 24.179897 0.000000 0.000000
							CHANNELS 3 Xrotation Yrotation Zrotation
							JOINT LeftHand
							{
								OFFSET 27.156403 0.000000 0.000000
								CHANNELS 3 Xrotation Yrotation Zrotation
								JOINT LeftHandIndex1
								{
									OFFSET 16.441200 0.000000 0.000000
									CHANNELS 3 Xrotation Yrotation Zrotation
									JOINT LeftHandIndex2
									{
										OFFSET 4.821899 0.000000 0.000000
										CHANNELS 3 Xrotation Yrotation Zrotation
										JOINT LeftHandIndex3
										{
											OFFSET 6.386497 0.000000 0.000000
											CHANNELS 3 Xrotation Yrotation Zrotation
											JOINT LeftHandIndex4
											{
												OFFSET 5.188988 0.000000 0.000000
												CHANNELS 3 Xrotation Yrotation Zrotation
												End Site
												{
													OFFSET -0.178703 5.185913 0.000177
												}
											}
										}
									}
								}
								JOINT LeftHandThumb1
								{
									OFFSET 6.534897 -5.032593 5.900300
									CHANNELS 3 Xrotation Yrotation Zrotation
									JOINT LeftHandThumb2
									{
										OFFSET 3.818176 -2.204422 2.204423
										CHANNELS 3 Xrotation Yrotation Zrotation
										JOINT LeftHandThumb3
										{
											OFFSET 3.252098 -1.877594 1.877601
											CHANNELS 3 Xrotation Yrotation Zrotation
											JOINT LeftHandThumb4
											{
												OFFSET 5.251778 -3.032120 3.032117
												CHANNELS 3 Xrotation Yrotation Zrotation
												End Site
												{
													OFFSET 0.000023 6.780014 0.000000
												}
											}
										}
									}
								}
							}
						}
					}
				}
				JOINT RightShoulder
				{
					OFFSET -12.896300 26.716293 -4.548400
					CHANNELS 3 Xrotation Yrotation Zrotation
					JOINT RightArm
					{
						OFFSET -19.027000 -4.857010 -1.718400
						CHANNELS 3 Xrotation Yrotation Zrotation
						JOINT RightForeArm
						{
							OFFSET -24.179897 0.000000 0.000000
							CHANNELS 3 Xrotation Yrotation Zrotation
							JOINT RightHand
							{
								OFFSET -27.156403 0.000000 0.000000
								CHANNELS 3 Xrotation Yrotation Zrotation
								JOINT RightHandThumb1
								{
									OFFSET -6.591202 -4.852203 5.988100
									CHANNELS 3 Xrotation Yrotation Zrotation
									JOINT RightHandThumb2
									{
										OFFSET -3.818176 -2.204422 2.204423
										CHANNELS 3 Xrotation Yrotation Zrotation
										JOINT RightHandThumb3
										{
											OFFSET -3.252098 -1.877594 1.877601
											CHANNELS 3 Xrotation Yrotation Zrotation
											JOINT RightHandThumb4
											{
												OFFSET -5.251778 -3.032120 3.032117
												CHANNELS 3 Xrotation Yrotation Zrotation
												End Site
												{
													OFFSET -0.000023 6.780014 0.000000
												}
											}
										}
									}
								}
								JOINT RightHandIndex1
								{
									OFFSET -16.029404 0.000000 0.000000
									CHANNELS 3 Xrotation Yrotation Zrotation
									JOINT RightHandIndex2
									{
										OFFSET -5.213303 0.000000 0.000000
										CHANNELS 3 Xrotation Yrotation Zrotation
										JOINT RightHandIndex3
										{
											OFFSET -6.386528 0.000000 0.000000
											CHANNELS 3 Xrotation Yrotation Zrotation
											JOINT RightHandIndex4
											{
												OFFSET -5.189026 0.000000 0.000000
												CHANNELS 3 Xrotation Yrotation Zrotation
												End Site
												{
													OFFSET 0.236702 5.183624 0.001972
												}
											}
										}
									}
								}
							}
						}
					}
				}
			}
		}
	}
	JOINT LeftUpLeg
	{
		OFFSET 14.073000 -7.904099 -1.463000
		CHANNELS 3 Xrotation Yrotation Zrotation
		JOINT LeftLeg
		{
			OFFSET -0.109806 -34.073280 4.093200
			CHANNELS 3 Xrotation Yrotation Zrotation
			JOINT LeftFoot
			{
				OFFSET 0.109806 -29.899420 -6.319000
				CHANNELS 3 Xrotation Yrotation Zrotation
				JOINT LeftToeBase
				{
					OFFSET 1.551100 -14.988700 20.535801
					CHANNELS 3 Xrotation Yrotation Zrotation
					JOINT LeftToe_End
					{
						OFFSET 0.221200 0.570800 13.248301
						CHANNELS 3 Xrotation Yrotation Zrotation
						End Site
						{
							OFFSET 0.000000 13.262435 0.000000
						}
					}
				}
			}
		}
	}
	JOINT RightUpLeg
	{
		OFFSET -13.839300 -7.904099 -1.463000
		CHANNELS 3 Xrotation Yrotation Zrotation
		JOINT RightLeg
		{
			OFFSET 0.109694 -34.073219 4.093300
			CHANNELS 3 Xrotation Yrotation Zrotation
			JOINT RightFoot
			{
				OFFSET -0.109694 -29.899384 -6.319200
				CHANNELS 3 Xrotation Yrotation Zrotation
				JOINT RightToeBase
				{
					OFFSET -1.551100 -14.988700 20.535801
					CHANNELS 3 Xrotation Yrotation Zrotation
					JOINT RightToe_End
					{
						OFFSET -0.221200 0.570900 13.248299
						CHANNELS 3 Xrotation Yrotation Zrotation
						End Site
						{
							OFFSET 0.000000 13.262440 0.000000
						}
					}
				}
			}
		}
	}
}
MOTION
Frames: 8
Frame Time: 0.033333
-0.056418 74.707397 2.879959 18.364101 -3.966515 -1.043917 3.526514 -0.588265 1.592315 2.857221 -0.554532 0.861724 2.859395 -0.540883 0.863013 -12.196279 0.860096 0.865027 -8.374984 5.865158 -3.053733 -0.000000 0.000000 -0.000000 2.661688 0.662916 -9.763901 -0.807585 -29.168459 -52.622776 0.000048 -82.538075 0.000048 -13.336914 -39.681896 31.525968 8.217947 -16.471811 -19.121355 0.381215 2.080563 -20.763328 0.131197 1.234280 -12.136952 -0.000000 0.000002 0.000001 -1.840832 -9.507492 -9.240948 3.451762 2.496478 -2.901811 -4.638782 5.770462 5.875224 -0.000000 -0.000001 0.000000 11.058073 15.939551 2.577354 -12.110175 31.948002 54.988846 -0.000429 84.549361 0.000423 0.663429 21.603629 -37.482261 -13.238814 13.184478 18.517136 7.301260 -18.369148 0.872449 -5.504756 -5.510970 -14.718530 0.000000 0.000000 -0.000000 -1.014779 7.769729 21.962781 0.344575 -1.759743 22.156809 0.039785 -0.608324 7.489068 0.000000 -0.000000 0.000000 -42.972248 -3.435056 21.619307 51.176330 -8.984278 1.517262 -26.184432 4.852840 -16.797394 -2.968885 0.000004 -0.000002 -0.000000 -0.000000 0.000000 -43.877163 1.200395 -14.977374 48.726812 2.383757 -5.167395 -21.036409 -4.969917 20.199260 -3.794311 0.000001 0.000003 0.000000 0.000000 -0.000000 
0.685912 75.626595 4.245340 17.217469 -5.285884 -0.436560 3.333962 -0.670286 1.800820 2.725141 -0.591161 0.947714 2.727175 -0.581992 0.949110 -11.623140 0.829193 0.551640 -8.205928 5.230103 -2.721902 0.000001 -0.000000 -0.000000 2.661210 0.655508 -9.649305 3.307353 -30.609483 -47.203413 -0.000108 -80.129013 -0.000116 -18.641803 -35.470726 25.924058 8.283630 -16.551357 -18.688103 0.382587 2.084174 -20.800972 0.131241 1.234328 -12.137444 -0.000000 -0.000000 -0.000000 -1.958227 -9.677318 -9.269645 3.345945 2.004632 -2.958206 -4.638924 5.282559 5.758886 0.000000 0.000000 0.000002 10.838300 15.827206 3.960127 -6.910849 29.712354 53.921342 0.000151 77.810594 -0.000169 -20.009288 19.917948 -29.173524 -13.238814 13.184481 18.517136 7.301261 -18.369147 0.872447 -5.504757 -5.510971 -14.718530 0.000001 -0.000000 -0.000001 -1.014778 7.769726 21.962781 0.344576 -1.759742 22.156814 0.039785 -0.608324 7.489068 0.000000 0.000000 -0.000001 -38.707976 -1.694180 20.670237 49.198703 -7.457555 1.527231 -27.167315 4.920225 -16.387897 -2.995164 -0.000001 -0.000005 -0.000000 -0.000000 -0.000000 -40.201527 2.954117 -15.682697 45.650341 2.072990 -4.295483 -19.995850 -4.946513 20.885231 -3.426831 0.000005 0.000003 0.000000 -0.000001 -0.000000 
1.588486 76.152931 5.733599 15.860727 -6.914878 0.307503 3.231300 -1.009246 2.044398 2.644507 -0.822658 1.029292 2.647695 -0.818050 1.032684 -11.290094 0.920461 0.485444 -7.419710 5.596852 -3.454749 -0.000000 -0.000000 0.000000 2.629081 0.489963 -9.182955 5.355958 -31.657155 -42.469720 0.000074 -76.113490 0.000046 -20.819762 -35.582369 22.642569 8.288318 -16.559850 -18.703935 0.381297 2.080788 -20.765431 0.131239 1.234423 -12.138319 -0.000001 -0.000000 -0.000001 -1.940305 -9.658152 -9.272055 3.356072 2.059230 -2.950364 -4.643945 5.314490 5.756272 0.000000 -0.000000 0.000002 10.679447 15.849792 4.933323 -1.122055 27.136565 52.217974 0.000057 71.756451 -0.000041 -38.419695 17.751151 -23.040086 -13.238811 13.184486 18.517136 7.301260 -18.369147 0.872447 -5.504760 -5.510977 -14.718530 0.000000 0.000001 0.000001 -1.014775 7.769732 21.962782 0.344579 -1.759742 22.156811 0.039782 -0.608326 7.489065 0.000000 -0.000000 0.000001 -34.444764 0.355057 19.487501 48.143230 -6.065508 1.522865 -28.875168 5.018431 -15.747776 -2.959178 -0.000001 0.000011 -0.000000 0.000000 -0.000000 -36.895842 5.006370 -16.669193 43.739370 1.928173 -3.808404 -19.299253 -5.076866 21.927385 -3.136397 0.000002 0.000001 -0.000000 -0.000000 0.000000 
2.603543 76.110558 7.261916 14.497169 -9.060448 1.037359 3.168920 -1.511689 2.328406 2.584467 -1.172315 1.152232 2.589094 -1.171808 1.158394 -11.138122 1.120881 0.722619 -6.034282 6.976454 -5.036917 -0.000000 0.000000 0.000000 2.573932 0.311834 -8.287239 4.389241 -32.489598 -39.283970 0.000017 -71.432461 0.000030 -17.735184 -37.333712 23.192341 7.907446 -16.082259 -21.185254 0.367505 2.044117 -20.382797 0.131203 1.234161 -12.135698 -0.000004 0.000001 0.000000 -1.217248 -8.605493 -9.104586 3.992725 5.075998 -2.578049 -4.705731 8.192313 6.468797 0.000001 -0.000000 0.000002 10.589626 15.867942 5.473331 4.962936 23.901673 50.017769 -0.000012 67.722104 0.000020 -51.854612 16.728482 -18.175536 -13.238816 13.184481 18.517138 7.301260 -18.369150 0.872450 -5.504757 -5.510968 -14.718530 0.000002 0.000002 0.000002 -1.014778 7.769727 21.962781 0.344576 -1.759741 22.156814 0.039787 -0.608323 7.489068 -0.000000 0.000001 -0.000000 -30.491590 2.361899 18.242349 48.505961 -4.521222 1.504544 -31.571808 5.266303 -15.131806 -2.889368 0.000001 -0.000000 0.000000 0.000000 0.000000 -34.776519 7.201117 -17.527328 43.730614 2.227276 -4.084710 -18.989116 -5.299154 23.391103 -3.399613 -0.000007 -0.000001 -0.000000 0.000001 0.000000 
3.622283 75.526215 8.756241 13.246152 -12.084892 1.543572 3.149438 -2.009508 2.654951 2.562538 -1.512358 1.328954 2.566963 -1.517794 1.337172 -10.906264 1.444333 1.174478 -4.421094 9.303641 -6.924464 -0.000000 0.000001 -0.000000 2.516129 0.350395 -7.073808 0.330874 -32.910631 -38.262194 0.000023 -66.905494 0.000027 -11.584902 -38.214908 27.094623 7.223740 -15.056254 -26.172342 0.334218 1.952204 -19.427727 0.131049 1.233508 -12.129197 0.000003 -0.000001 -0.000000 0.265663 -6.375306 -8.810257 5.278444 11.410258 -1.916410 -5.008139 14.074034 8.081028 0.000000 0.000000 -0.000000 10.583015 15.801035 5.538490 10.561418 20.180677 48.175103 0.000000 66.202619 0.000009 -60.069451 16.441109 -14.288589 -13.238815 13.184481 18.517133 7.301256 -18.369145 0.872449 -5.504755 -5.510970 -14.718530 0.000001 -0.000001 -0.000002 -1.014781 7.769723 21.962776 0.344574 -1.759744 22.156813 0.039783 -0.608325 7.489073 -0.000002 0.000003 -0.000002 -26.678898 3.954992 17.082197 50.131396 -2.074246 1.496797 -35.202040 5.829849 -15.063554 -3.020394 -0.000003 0.000008 -0.000000 -0.000000 -0.000000 -35.076648 9.799980 -17.653027 46.771110 3.320471 -4.910343 -18.302448 -5.470499 24.661761 -4.424447 -0.000002 -0.000003 -0.000000 0.000000 0.000000 
4.466689 74.563347 10.210909 12.188899 -16.084774 1.754937 3.171604 -2.475403 2.954240 2.584288 -1.815550 1.512898 2.586389 -1.830238 1.521568 -10.318678 1.884659 1.774501 -3.110571 12.473823 -8.634371 0.000000 -0.000000 -0.000000 2.470123 0.769477 -5.883475 -5.669154 -32.454805 -38.959273 0.000019 -63.062262 0.000016 -7.316014 -37.966525 31.336245 6.680787 -14.080496 -30.379080 0.283832 1.803063 -17.889918 0.131026 1.233364 -12.127775 -0.000003 0.000000 -0.000001 1.723012 -4.127619 -8.613591 6.505971 17.669821 -1.417704 -5.634673 19.370410 9.775032 -0.000002 -0.000001 0.000001 10.631445 15.675405 5.295636 14.604795 16.698595 47.315951 -0.000001 66.391597 0.000019 -64.416668 15.399339 -11.405924 -13.238811 13.184484 18.517136 7.301266 -18.369143 0.872450 -5.504757 -5.510970 -14.718528 0.000003 0.000001 -0.000001 -1.014778 7.769728 21.962777 0.344572 -1.759738 22.156813 0.039785 -0.608319 7.489073 -0.000001 -0.000002 0.000001 -22.509587 5.087243 15.918258 52.016682 0.082542 1.681801 -39.606939 6.100771 -14.485877 -3.660343 0.000001 0.000000 0.000000 -0.000000 -0.000000 -38.509334 13.028506 -16.386293 53.503146 4.251233 -5.593882 -16.787217 -5.096585 24.145016 -6.759357 -0.031388 1.631443 -0.000000 0.000001 -0.000000 
5.067381 73.554359 11.781402 11.474470 -20.532379 1.678252 3.165050 -3.074215 3.238525 2.578561 -2.207834 1.663618 2.578111 -2.232096 1.671384 -9.438512 2.394391 2.535475 -2.344203 16.270229 -9.951130 0.000000 0.000001 0.000000 2.437287 1.471580 -5.012238 -11.758571 -31.086107 -40.110805 -0.000006 -60.154985 -0.000003 -5.200231 -37.963609 34.788582 6.372171 -13.739204 -30.786320 0.224984 1.609538 -15.914291 0.131272 1.234506 -12.139231 0.000000 0.000001 -0.000000 2.435280 -3.053346 -8.572521 7.047866 20.456003 -1.241163 -6.272348 20.721616 10.381007 -0.000003 -0.000000 0.000000 10.671447 15.472371 5.142632 16.888440 14.017473 47.157334 0.000001 67.136354 -0.000024 -66.913027 13.100655 -9.142224 -13.238813 13.184476 18.517133 7.301256 -18.369147 0.872449 -5.504753 -5.510970 -14.718530 -0.000001 -0.000001 -0.000000 -1.014777 7.769725 21.962782 0.344578 -1.759744 22.156813 0.039785 -0.608324 7.489071 -0.000002 -0.000002 0.000001 -17.773501 5.857893 14.921533 53.257929 0.127399 1.960893 -44.582742 6.058459 -13.349863 -4.800418 0.000002 -0.000001 0.000001 -0.000001 -0.000000 -45.121087 16.067509 -13.446366 62.610664 3.804858 -5.410867 -12.687896 -3.948424 21.291639 -9.740980 -0.299993 4.974007 -0.000000 -0.000000 0.000000 
5.504981 72.911377 13.633990 11.193137 -24.552447 1.371377 3.063278 -3.905228 3.576663 2.473937 -2.774526 1.807020 2.472497 -2.804433 1.813242 -8.612005 2.896800 3.382679 -1.998256 20.144130 -10.852149 -0.000000 -0.000000 -0.000000 2.414145 2.017407 -4.493882 -16.193827 -29.239528 -40.871377 -0.000011 -58.340676 -0.000010 -2.977884 -38.135709 38.027464 6.147765 -13.990155 -28.000559 0.166013 1.386182 -13.658412 0.131389 1.235090 -12.145058 -0.000003 0.000001 -0.000000 2.463204 -3.031323 -8.579530 6.998827 20.197684 -1.253615 -6.756127 18.762205 9.863366 -0.000004 -0.000000 -0.000001 10.659617 15.030649 5.417452 18.042879 11.953735 47.496511 0.000003 67.843552 0.000007 -68.430518 10.616264 -7.340992 -13.238816 13.184476 18.517135 7.301262 -18.369147 0.872447 -5.504758 -5.510971 -14.718532 0.000004 -0.000002 -0.000002 -1.014779 7.769726 21.962781 0.344573 -1.759746 22.156809 0.039786 -0.608321 7.489070 -0.000001 -0.000000 -0.000000 -12.793657 6.871044 13.642250 52.664320 -0.528342 2.383464 -48.700642 5.170427 -11.322129 -6.094085 -0.000005 0.000001 0.000000 0.000000 0.000000 -52.220614 16.339360 -9.708482 69.672704 0.147565 -4.471628 -6.795160 -2.529783 17.398520 -11.961525 -0.791583 7.969687 0.000000 -0.000001 0.000000 
